<svg width="24" height="24" viewBox="0 0 24 24" fill="none" xmlns="http://www.w3.org/2000/svg">
<path fill-rule="evenodd" clip-rule="evenodd" d="M22 2H2L2 22H22V2ZM2 0C0.895431 0 0 0.89543 0 2V22C0 23.1046 0.89543 24 2 24H22C23.1046 24 24 23.1046 24 22V2C24 0.895431 23.1046 0 22 0H2Z" fill="black"/>
<path d="M13.8618 19.6978C13.4517 19.8993 12.912 20 12.2426 20C10.4454 20 9.54686 19.1526 9.54686 17.4578V12.3111H8V10.6933H9.54686V8.58667L11.6455 8V10.6933H13.8618V12.3111H11.6455V16.8622C11.6455 17.4015 11.745 17.7867 11.944 18.0178C12.143 18.2489 12.4747 18.3644 12.9391 18.3644C13.2949 18.3644 13.6025 18.2637 13.8618 18.0622V19.6978Z" fill="black"/>
<path d="M20 19.6978C19.5899 19.8993 19.0502 20 18.3808 20C16.5836 20 15.6851 19.1526 15.6851 17.4578V12.3111H14.1382V10.6933H15.6851V8.58667L17.7837 8V10.6933H20V12.3111H17.7837V16.8622C17.7837 17.4015 17.8832 17.7867 18.0823 18.0178C18.2813 18.2489 18.613 18.3644 19.0773 18.3644C19.4331 18.3644 19.7407 18.2637 20 18.0622V19.6978Z" fill="black"/>
</svg>
